<svg xmlns="http://www.w3.org/2000/svg" viewBox="0 0 400 300"><rect width="400" height="300" fill="#87CEEB"/><line x1="0" x2="400" y1="250" y2="250" stroke="#90EE90" stroke-width="3"/><circle cx="120" cy="230" r="20" fill="none" stroke="#333" stroke-width="3"/><circle cx="120" cy="230" r="3" fill="#333"/><line x1="120" x2="120" y1="210" y2="250" stroke="#333" stroke-width="2"/><line x1="100" x2="140" y1="230" y2="230" stroke="#333" stroke-width="2"/><circle cx="220" cy="230" r="20" fill="none" stroke="#333" stroke-width="3"/><circle cx="220" cy="230" r="3" fill="#333"/><line x1="220" x2="220" y1="210" y2="250" stroke="#333" stroke-width="2"/><line x1="200" x2="240" y1="230" y2="230" stroke="#333" stroke-width="2"/><line x1="120" x2="170" y1="230" y2="180" stroke="#333" stroke-width="4"/><line x1="170" x2="220" y1="180" y2="230" stroke="#333" stroke-width="4"/><line x1="170" x2="170" y1="180" y2="160" stroke="#333" stroke-width="4"/><line x1="170" x2="200" y1="180" y2="180" stroke="#333" stroke-width="4"/><ellipse cx="170" cy="160" fill="#8B4513" rx="15" ry="8"/><line x1="200" x2="210" y1="180" y2="170" stroke="#333" stroke-width="3"/><path fill="none" stroke="#333" stroke-width="3" d="M 205 165 Q 210 170 215 165"/><circle cx="170" cy="180" r="3" fill="#333"/><line x1="165" x2="175" y1="180" y2="180" stroke="#333" stroke-width="3"/><line x1="170" x2="170" y1="175" y2="185" stroke="#333" stroke-width="3"/><ellipse cx="170" cy="140" fill="beige" rx="35" ry="25"/><path fill="none" stroke="beige" stroke-width="20" d="M 150 130 Q 140 110 135 95"/><ellipse cx="135" cy="85" fill="beige" rx="20" ry="18"/><path fill="orange" d="M 115 85 L 85 88 L 115 91 Z"/><path fill="none" stroke="#FF8C00" stroke-width="2" d="M 85 88 Q 80 95 85 102"/><circle cx="130" cy="80" r="4" fill="#000"/><circle cx="131" cy="79" r="1.5" fill="#FFF"/><path fill="#E0E0E0" d="M 185 135 Q 210 125 215 140 Q 210 150 185 145"/><line x1="165" x2="165" y1="160" y2="180" stroke="orange" stroke-width="4"/><line x1="175" x2="175" y1="160" y2="180" stroke="orange" stroke-width="4"/><ellipse cx="165" cy="180" fill="orange" rx="6" ry="4"/><ellipse cx="175" cy="180" fill="orange" rx="6" ry="4"/><path stroke="#666" stroke-width="2" d="M 250 140 L 260 140" opacity=".5"/><path stroke="#666" stroke-width="2" d="M 255 150 L 265 150" opacity=".5"/><path stroke="#666" stroke-width="2" d="M 245 160 L 255 160" opacity=".5"/><ellipse cx="170" cy="245" fill="#000" opacity=".2" rx="40" ry="8"/></svg>