<svg xmlns="http://www.w3.org/2000/svg" width="300" height="300" viewBox="0 0 300 300"><circle cx="80" cy="200" r="30" fill="#000"/><circle cx="150" cy="200" r="30" fill="#000"/><line x1="80" x2="80" y1="200" y2="170" stroke="#fff" stroke-width="2"/><line x1="80" x2="80" y1="200" y2="230" stroke="#fff" stroke-width="2"/><line x1="50" x2="110" y1="200" y2="200" stroke="#fff" stroke-width="2"/><line x1="150" x2="150" y1="200" y2="170" stroke="#fff" stroke-width="2"/><line x1="150" x2="150" y1="200" y2="230" stroke="#fff" stroke-width="2"/><line x1="120" x2="180" y1="200" y2="200" stroke="#fff" stroke-width="2"/><line x1="80" x2="115" y1="200" y2="170" stroke="#000" stroke-width="5"/><line x1="115" x2="150" y1="170" y2="130" stroke="#000" stroke-width="5"/><line x1="150" x2="150" y1="130" y2="200" stroke="#000" stroke-width="5"/><line x1="80" x2="150" y1="200" y2="200" stroke="#000" stroke-width="5"/><line x1="150" x2="150" y1="130" y2="100" stroke="#000" stroke-width="3"/><line x1="140" x2="160" y1="100" y2="100" stroke="#000" stroke-width="3"/><circle cx="140" cy="100" r="3" fill="#000"/><circle cx="160" cy="100" r="3" fill="#000"/><line x1="115" x2="135" y1="210" y2="210" stroke="#000" stroke-width="3"/><circle cx="115" cy="210" r="5" fill="#000"/><circle cx="135" cy="210" r="5" fill="#000"/><ellipse cx="100" cy="80" fill="#fff" stroke="#000" stroke-width="2" rx="30" ry="20"/><circle cx="130" cy="70" r="15" fill="#fff" stroke="#000" stroke-width="2"/><polygon fill="orange" stroke="#000" stroke-width="1" points="130 70 160 95 130 110"/><polygon fill="#fff" stroke="#000" stroke-width="1" points="70 80 50 100 80 110"/><polygon fill="#fff" stroke="#000" stroke-width="1" points="60 85 50 95 60 105"/><circle cx="135" cy="65" r="2" fill="#000"/><line x1="90" x2="115" y1="100" y2="210" stroke="orange" stroke-width="3"/><line x1="110" x2="135" y1="100" y2="210" stroke="orange" stroke-width="3"/><circle cx="115" cy="215" r="5" fill="orange"/><circle cx="135" cy="215" r="5" fill="orange"/><polygon fill="orange" points="110 215 115 220 120 215"/><polygon fill="orange" points="130 215 135 220 140 215"/></svg>